<svg width="22" height="20" viewBox="0 0 22 20" fill="none" xmlns="http://www.w3.org/2000/svg">
<path d="M2.75 7.5H19.25M6.41667 2.5V4.16667M15.5833 2.5V4.16667M5.5 10H7.33333M10.0833 10H11.9167M14.6667 10H16.5M5.5 12.5H7.33333M10.0833 12.5H11.9167M14.6667 12.5H16.5M5.5 15H7.33333M10.0833 15H11.9167M14.6667 15H16.5M5.68333 17.5H16.3167C17.3434 17.5 17.8569 17.5 18.249 17.3183C18.5939 17.1586 18.8744 16.9036 19.0502 16.59C19.25 16.2335 19.25 15.7667 19.25 14.8333V6.83333C19.25 5.89991 19.25 5.4332 19.0502 5.07668C18.8744 4.76307 18.5939 4.50811 18.249 4.34832C17.8569 4.16667 17.3434 4.16667 16.3167 4.16667H5.68333C4.65657 4.16667 4.14319 4.16667 3.75102 4.34832C3.40605 4.50811 3.12559 4.76307 2.94982 5.07668C2.75 5.4332 2.75 5.89991 2.75 6.83333V14.8333C2.75 15.7667 2.75 16.2335 2.94982 16.59C3.12559 16.9036 3.40605 17.1586 3.75102 17.3183C4.14319 17.5 4.65657 17.5 5.68333 17.5Z" stroke="white" stroke-width="2" stroke-linecap="round"/>
</svg>
