<svg width="33" height="34" viewBox="0 0 33 34" fill="none" xmlns="http://www.w3.org/2000/svg">
<path fill-rule="evenodd" clip-rule="evenodd" d="M26.1249 12.0096C26.1296 12.2755 25.9894 12.5218 25.7618 12.6472L22.1348 14.6456L25.7393 16.4594C25.9712 16.5761 26.1201 16.817 26.1249 17.0829C26.1296 17.3488 25.9894 17.5951 25.7618 17.7205L22 19.8333C22.1935 19.7247 22.2277 19.708 22 19.8333L16.7851 22.6667C16.1366 22.9036 15.4882 22.9036 14.8398 22.6667L12.165 21.1929C11.9374 21.0675 11.371 20.7554 11.0982 20.6051C10.996 20.5488 10.0959 20.0528 10.0959 20.0528L9.49025 19.7192L5.86316 17.7205C5.6355 17.5951 5.49526 17.3488 5.5 17.0829C5.50474 16.817 5.65369 16.5761 5.88567 16.4594L9.49013 14.6456L5.86316 12.6472C5.6355 12.5218 5.49526 12.2755 5.5 12.0096C5.50474 11.7436 5.65369 11.5029 5.88567 11.3861L14.9073 6.84643C15.4785 6.55902 16.1464 6.55902 16.7176 6.84643L25.7393 11.3861C25.9712 11.5029 26.1201 11.7436 26.1249 12.0096ZM16.7851 17.5934L20.6392 15.4697L23.9278 17.1245L16.1367 21.4175C15.9341 21.5291 15.6908 21.5291 15.4882 21.4175L7.69711 17.1245L10.9857 15.4697L14.8398 17.5934C15.4475 17.9282 16.1773 17.9282 16.7851 17.5934ZM23.9278 12.0512L16.1141 8.11939C15.9238 8.02358 15.7011 8.02358 15.5108 8.11939L7.69711 12.0512L15.4882 16.3441C15.6908 16.4557 15.9341 16.4557 16.1367 16.3441L23.9278 12.0512Z" fill="white"/>
</svg>
