<svg width="19" height="19" viewBox="0 0 19 19" fill="none" xmlns="http://www.w3.org/2000/svg">
<path d="M15.8346 17.4168H3.95964C3.74967 17.4168 3.54831 17.3334 3.39984 17.185C3.25138 17.0365 3.16797 16.8351 3.16797 16.6252V2.37516C3.16797 2.1652 3.25138 1.96384 3.39984 1.81537C3.54831 1.6669 3.74967 1.5835 3.95964 1.5835H15.8346C16.0446 1.5835 16.246 1.6669 16.3944 1.81537C16.5429 1.96384 16.6263 2.1652 16.6263 2.37516V14.2502C16.6263 14.4601 16.5429 14.6615 16.3944 14.81C16.246 14.9584 16.0446 15.0418 15.8346 15.0418C15.6247 15.0418 15.4233 14.9584 15.2748 14.81C15.1264 14.6615 15.043 14.4601 15.043 14.2502V3.16683H4.7513V15.8335H15.8346C16.0446 15.8335 16.246 15.9169 16.3944 16.0654C16.5429 16.2138 16.6263 16.4152 16.6263 16.6252C16.6263 16.8351 16.5429 17.0365 16.3944 17.185C16.246 17.3334 16.0446 17.4168 15.8346 17.4168Z" fill="white"/>
<path d="M5.54232 5.54183H2.37565C2.16569 5.54183 1.96432 5.45842 1.81586 5.30996C1.66739 5.16149 1.58398 4.96013 1.58398 4.75016C1.58398 4.5402 1.66739 4.33884 1.81586 4.19037C1.96432 4.0419 2.16569 3.9585 2.37565 3.9585H5.54232C5.75228 3.9585 5.95364 4.0419 6.10211 4.19037C6.25058 4.33884 6.33398 4.5402 6.33398 4.75016C6.33398 4.96013 6.25058 5.16149 6.10211 5.30996C5.95364 5.45842 5.75228 5.54183 5.54232 5.54183Z" fill="white"/>
<path d="M5.54232 8.70833H2.37565C2.16569 8.70833 1.96432 8.62493 1.81586 8.47646C1.66739 8.32799 1.58398 8.12663 1.58398 7.91667C1.58398 7.7067 1.66739 7.50534 1.81586 7.35687C1.96432 7.20841 2.16569 7.125 2.37565 7.125H5.54232C5.75228 7.125 5.95364 7.20841 6.10211 7.35687C6.25058 7.50534 6.33398 7.7067 6.33398 7.91667C6.33398 8.12663 6.25058 8.32799 6.10211 8.47646C5.95364 8.62493 5.75228 8.70833 5.54232 8.70833Z" fill="white"/>
<path d="M5.54232 11.8753H2.37565C2.16569 11.8753 1.96432 11.7919 1.81586 11.6435C1.66739 11.495 1.58398 11.2936 1.58398 11.0837C1.58398 10.8737 1.66739 10.6723 1.81586 10.5239C1.96432 10.3754 2.16569 10.292 2.37565 10.292H5.54232C5.75228 10.292 5.95364 10.3754 6.10211 10.5239C6.25058 10.6723 6.33398 10.8737 6.33398 11.0837C6.33398 11.2936 6.25058 11.495 6.10211 11.6435C5.95364 11.7919 5.75228 11.8753 5.54232 11.8753Z" fill="white"/>
<path d="M5.54232 15.0418H2.37565C2.16569 15.0418 1.96432 14.9584 1.81586 14.81C1.66739 14.6615 1.58398 14.4601 1.58398 14.2502C1.58398 14.0402 1.66739 13.8388 1.81586 13.6904C1.96432 13.5419 2.16569 13.4585 2.37565 13.4585H5.54232C5.75228 13.4585 5.95364 13.5419 6.10211 13.6904C6.25058 13.8388 6.33398 14.0402 6.33398 14.2502C6.33398 14.4601 6.25058 14.6615 6.10211 14.81C5.95364 14.9584 5.75228 15.0418 5.54232 15.0418Z" fill="white"/>
<path d="M11.8763 8.70833H8.70964C8.49967 8.70833 8.29831 8.62493 8.14984 8.47646C8.00138 8.32799 7.91797 8.12663 7.91797 7.91667C7.91797 7.7067 8.00138 7.50534 8.14984 7.35687C8.29831 7.20841 8.49967 7.125 8.70964 7.125H11.8763C12.0863 7.125 12.2876 7.20841 12.4361 7.35687C12.5846 7.50534 12.668 7.7067 12.668 7.91667C12.668 8.12663 12.5846 8.32799 12.4361 8.47646C12.2876 8.62493 12.0863 8.70833 11.8763 8.70833Z" fill="white"/>
<path d="M11.8763 11.8753H8.70964C8.49967 11.8753 8.29831 11.7919 8.14984 11.6435C8.00138 11.495 7.91797 11.2936 7.91797 11.0837C7.91797 10.8737 8.00138 10.6723 8.14984 10.5239C8.29831 10.3754 8.49967 10.292 8.70964 10.292H11.8763C12.0863 10.292 12.2876 10.3754 12.4361 10.5239C12.5846 10.6723 12.668 10.8737 12.668 11.0837C12.668 11.2936 12.5846 11.495 12.4361 11.6435C12.2876 11.7919 12.0863 11.8753 11.8763 11.8753Z" fill="white"/>
</svg>
