<svg width="167" height="207" viewBox="0 0 167 207" fill="none" xmlns="http://www.w3.org/2000/svg">
<path d="M39.9097 -22.5033C54.1989 -36.2011 82.7774 -45.1929 112.819 -45.1929C142.861 -45.1929 171.612 -36.2851 185.384 -22.5033C187.042 -21.2896 189.092 -20.7003 191.159 -20.8437C193.226 -20.9871 195.171 -21.8535 196.636 -23.2839C198.101 -24.7143 198.989 -26.6126 199.135 -28.6304C199.282 -30.6482 198.679 -32.65 197.435 -34.2683C176.776 -54.7729 140.106 -62 112.733 -62C85.3598 -62 48.6899 -54.6889 27.8586 -34.2683C26.6153 -32.65 26.0118 -30.6482 26.1586 -28.6304C26.3055 -26.6126 27.193 -24.7143 28.6582 -23.2839C30.1234 -21.8535 32.0679 -20.9871 34.1347 -20.8437C36.2016 -20.7003 38.2521 -21.2896 39.9097 -22.5033ZM224.981 43.4646C200.706 -4.18355 163.004 -28.3858 112.819 -28.3858C62.6348 -28.3858 24.8458 -4.18355 0.915656 43.4646C-0.105349 45.4493 -0.280092 47.7478 0.429616 49.8579C1.13932 51.9679 2.67577 53.7179 4.70316 54.7254C5.71913 55.2291 6.82742 55.5308 7.96376 55.6131C9.10011 55.6955 10.2419 55.5567 11.3229 55.2049C12.4039 54.8532 13.4026 54.2954 14.2611 53.5639C15.1195 52.8324 15.8207 51.9418 16.3239 50.9438C37.3273 9.01003 69.0046 -11.5787 112.647 -11.5787C156.289 -11.5787 188.139 8.92599 209.659 51.0278C210.381 52.4264 211.489 53.6003 212.857 54.417C214.226 55.2337 215.802 55.6607 217.406 55.6498C218.722 55.6997 220.029 55.4098 221.193 54.8094C222.216 54.3181 223.128 53.6336 223.877 52.7955C224.627 51.9574 225.198 50.9825 225.558 49.9271C225.919 48.8718 226.061 47.7571 225.976 46.6478C225.892 45.5384 225.583 44.4564 225.067 43.4646H224.981ZM140.623 173.972C105.072 159.098 90.6967 136.156 88.9751 119.349C88.2804 114.997 88.8197 110.542 90.5344 106.468C92.2492 102.394 95.0739 98.8567 98.7021 96.2389C106.019 91.4489 116.779 98.2558 132.015 109.012C147.251 119.769 167.566 134.223 185.126 121.197C200.62 109.853 205.269 89.6001 197.608 67.0786C191.538 49.5923 180.174 34.3168 165.019 23.2728C149.864 12.2287 131.631 5.93647 112.733 5.22843C35.6057 5.22843 8.06027 70.356 8.06027 131.282C8.06027 133.51 8.96717 135.648 10.5815 137.224C12.1958 138.8 14.3853 139.685 16.6682 139.685C18.9512 139.685 21.1407 138.8 22.755 137.224C24.3693 135.648 25.2762 133.51 25.2762 131.282C25.2762 106.071 31.56 22.0355 112.733 22.0355C146.304 22.0355 172.989 48.0866 181.597 72.4569C184.179 79.768 188.483 97.6675 175.141 107.752C168.254 112.794 157.925 106.071 142.431 95.3986C126.936 84.726 107.396 70.6921 89.5777 82.289C83.3859 86.6015 78.5125 92.4773 75.4798 99.287C72.4471 106.097 71.3692 113.583 72.3618 120.945C74.4277 142.458 91.6436 171.367 134.167 189.434C135.121 189.834 136.142 190.062 137.18 190.107C139.17 190.122 141.104 189.465 142.653 188.245C144.203 187.025 145.271 185.319 145.677 183.417C146.083 181.515 145.801 179.535 144.88 177.812C143.958 176.09 142.454 174.733 140.623 173.972ZM59.708 99.6844C63.0637 89.9442 68.9532 81.222 76.7997 74.372C84.6463 67.5219 94.1808 62.7791 104.469 60.6079C123.751 56.9943 141.656 65.65 156.117 85.8185C156.757 86.763 157.586 87.5714 158.555 88.1952C159.523 88.819 160.61 89.2453 161.752 89.4485C162.893 89.6516 164.064 89.6275 165.196 89.3775C166.327 89.1276 167.395 88.6569 168.336 87.9938C169.276 87.3308 170.07 86.4889 170.669 85.5189C171.267 84.549 171.659 83.4708 171.82 82.3493C171.982 81.2278 171.909 80.086 171.607 78.9925C171.305 77.8991 170.779 76.8766 170.062 75.9864C145.099 41.7839 116.09 41.3637 101.198 44.0528C87.598 46.812 74.9937 53.0522 64.6776 62.1339C54.3615 71.2157 46.7047 82.8122 42.4921 95.7347C33.8842 128.845 46.1935 165.232 78.6456 203.888C79.4738 204.886 80.5252 205.685 81.7189 206.224C82.9127 206.763 84.217 207.028 85.5319 206.998C87.5216 207.026 89.4522 206.338 90.955 205.065C92.7028 203.654 93.8098 201.627 94.0354 199.424C94.2611 197.221 93.5871 195.021 92.1601 193.3C63.4095 158.845 52.3913 127.5 59.708 99.7684V99.6844ZM191.41 142.206C187.941 145.366 183.648 147.531 179.001 148.465C174.355 149.399 169.535 149.065 165.07 147.501C144.41 142.711 123.923 124.811 119.447 111.785C119.086 110.737 118.516 109.769 117.771 108.935C117.026 108.102 116.12 107.42 115.104 106.928C114.089 106.436 112.985 106.145 111.854 106.07C110.724 105.995 109.589 106.138 108.515 106.491C107.441 106.844 106.449 107.401 105.595 108.128C104.742 108.856 104.043 109.74 103.54 110.731C103.036 111.722 102.737 112.8 102.661 113.904C102.584 115.008 102.73 116.115 103.092 117.164C109.979 136.744 136.405 158.173 161.11 163.888C165.4 164.868 169.788 165.375 174.194 165.4C179.601 165.515 184.978 164.57 190.005 162.622C195.031 160.673 199.607 157.76 203.461 154.055C204.704 152.437 205.308 150.435 205.161 148.418C205.014 146.4 204.127 144.501 202.661 143.071C201.196 141.641 199.252 140.774 197.185 140.631C195.118 140.487 193.068 141.077 191.41 142.29V142.206Z" fill="url(#paint0_linear_399_280)"/>
<defs>
<linearGradient id="paint0_linear_399_280" x1="113" y1="-62" x2="113" y2="207" gradientUnits="userSpaceOnUse">
<stop stop-color="#E41335"/>
<stop offset="1" stop-color="#370B12"/>
</linearGradient>
</defs>
</svg>
