<svg width="206" height="122" viewBox="0 0 206 122" fill="none" xmlns="http://www.w3.org/2000/svg">
<path d="M62.5135 54.62C84.8957 35.6773 129.66 23.2425 176.717 23.2425C223.773 23.2425 268.807 35.5611 290.381 54.62C292.977 56.2984 296.189 57.1133 299.427 56.915C302.664 56.7167 305.71 55.5185 308.005 53.5404C310.3 51.5624 311.69 48.9372 311.92 46.1468C312.15 43.3564 311.205 40.5881 309.257 38.3502C276.897 9.99429 219.459 0 176.582 0C133.705 0 76.2664 10.1105 43.6369 38.3502C41.6895 40.5881 40.7441 43.3564 40.9742 46.1468C41.2042 48.9372 42.5944 51.5624 44.8894 53.5404C47.1844 55.5185 50.2302 56.7167 53.4677 56.915C56.7052 57.1133 59.917 56.2984 62.5135 54.62ZM352.404 145.847C314.381 79.9543 255.324 46.4851 176.717 46.4851C98.1093 46.4851 38.9177 79.9543 1.43426 145.847C-0.165015 148.592 -0.438728 151.77 0.672939 154.688C1.78461 157.606 4.19125 160.026 7.36689 161.419C8.95827 162.116 10.6943 162.533 12.4742 162.647C14.2542 162.761 16.0426 162.569 17.7358 162.083C19.4291 161.596 20.9934 160.825 22.3381 159.813C23.6828 158.802 24.7811 157.57 25.5693 156.19C58.4685 98.1997 108.087 69.7276 176.447 69.7276C244.807 69.7276 294.695 98.0835 328.404 156.306C329.534 158.24 331.27 159.864 333.414 160.993C335.558 162.122 338.026 162.713 340.538 162.698C342.6 162.767 344.647 162.366 346.471 161.536C348.072 160.856 349.501 159.91 350.675 158.751C351.849 157.592 352.744 156.243 353.308 154.784C353.872 153.325 354.095 151.783 353.963 150.249C353.831 148.715 353.347 147.219 352.539 145.847H352.404ZM220.268 326.325C164.582 305.756 142.065 274.03 139.368 250.787C138.28 244.769 139.125 238.609 141.811 232.975C144.496 227.341 148.921 222.449 154.604 218.829C166.065 212.204 182.919 221.618 206.784 236.493C230.65 251.368 262.47 271.357 289.976 253.344C314.246 237.655 321.527 209.648 309.527 178.503C300.02 154.321 282.22 133.197 258.481 117.924C234.742 102.651 206.183 93.9493 176.582 92.9702C55.7718 92.9702 12.6254 183.035 12.6254 267.289C12.6254 270.371 14.0459 273.327 16.5745 275.507C19.1031 277.686 22.5327 278.91 26.1086 278.91C29.6846 278.91 33.1141 277.686 35.6427 275.507C38.1714 273.327 39.5919 270.371 39.5919 267.289C39.5919 232.425 49.4347 116.213 176.582 116.213C229.167 116.213 270.965 152.239 284.448 185.94C288.493 196.051 295.235 220.804 274.336 234.75C263.549 241.722 247.369 232.425 223.099 217.666C198.829 202.907 168.222 183.5 140.312 199.537C130.613 205.501 122.98 213.627 118.229 223.044C113.479 232.461 111.791 242.814 113.345 252.995C116.581 282.746 143.548 322.723 210.155 347.708C211.65 348.261 213.249 348.576 214.874 348.638C217.992 348.66 221.021 347.75 223.448 346.064C225.875 344.377 227.548 342.018 228.184 339.387C228.82 336.757 228.379 334.018 226.935 331.637C225.492 329.255 223.136 327.378 220.268 326.325ZM93.525 223.593C98.7811 210.124 108.006 198.062 120.297 188.589C132.588 179.116 147.522 172.557 163.638 169.554C193.841 164.557 221.886 176.527 244.538 204.418C245.54 205.724 246.839 206.842 248.356 207.705C249.872 208.568 251.576 209.157 253.363 209.438C255.151 209.719 256.986 209.686 258.758 209.34C260.53 208.994 262.203 208.343 263.676 207.426C265.15 206.509 266.392 205.345 267.33 204.004C268.268 202.662 268.882 201.172 269.135 199.621C269.387 198.07 269.273 196.491 268.8 194.979C268.327 193.466 267.504 192.052 266.38 190.821C227.279 143.523 181.84 142.942 158.514 146.66C137.211 150.476 117.468 159.106 101.309 171.665C85.1503 184.224 73.1569 200.261 66.5584 218.131C53.0752 263.919 72.3562 314.239 123.188 367.697C124.486 369.076 126.132 370.181 128.002 370.927C129.872 371.672 131.915 372.038 133.975 371.997C137.091 372.036 140.115 371.085 142.469 369.324C145.207 367.373 146.941 364.57 147.294 361.524C147.648 358.477 146.592 355.434 144.357 353.054C99.3228 305.407 82.0642 262.06 93.525 223.709V223.593ZM299.819 282.397C294.386 286.766 287.661 289.76 280.383 291.052C273.104 292.344 265.554 291.882 258.56 289.718C226.2 283.094 194.11 258.341 187.099 240.328C186.532 238.878 185.64 237.539 184.473 236.386C183.305 235.233 181.886 234.29 180.296 233.611C178.706 232.931 176.976 232.527 175.205 232.424C173.434 232.32 171.657 232.518 169.975 233.006C168.293 233.495 166.739 234.264 165.402 235.27C164.064 236.276 162.97 237.499 162.181 238.87C161.393 240.24 160.925 241.731 160.805 243.258C160.684 244.784 160.914 246.316 161.481 247.766C172.267 274.843 213.661 304.477 252.358 312.38C259.077 313.736 265.952 314.437 272.852 314.472C281.323 314.63 289.744 313.324 297.618 310.629C305.492 307.935 312.659 303.906 318.696 298.783C320.643 296.545 321.588 293.777 321.358 290.986C321.128 288.196 319.738 285.571 317.443 283.593C315.148 281.615 312.102 280.416 308.865 280.218C305.627 280.02 302.415 280.835 299.819 282.513V282.397Z" fill="url(#paint0_linear_178_396)"/>
<defs>
<linearGradient id="paint0_linear_178_396" x1="177" y1="0" x2="177" y2="372" gradientUnits="userSpaceOnUse">
<stop stop-color="#E41335"/>
<stop offset="1" stop-color="#370B12"/>
</linearGradient>
</defs>
</svg>
