<svg width="61" height="162" viewBox="0 0 61 162" fill="none" xmlns="http://www.w3.org/2000/svg">
<path d="M19.2485 23.7861C26.1402 15.5369 39.9236 10.1218 54.4128 10.1218C68.902 10.1218 82.7684 15.4863 89.411 23.7861C90.2105 24.5171 91.1995 24.8719 92.1963 24.7856C93.1931 24.6992 94.131 24.1774 94.8376 23.316C95.5443 22.4546 95.9723 21.3113 96.0432 20.0962C96.114 18.881 95.8229 17.6755 95.2233 16.7009C85.2594 4.35235 67.5735 0 54.3713 0C41.1691 0 23.4832 4.40296 13.4362 16.7009C12.8366 17.6755 12.5455 18.881 12.6163 20.0962C12.6872 21.3113 13.1152 22.4546 13.8219 23.316C14.5285 24.1774 15.4664 24.6992 16.4632 24.7856C17.4601 24.8719 18.449 24.5171 19.2485 23.7861ZM108.509 63.514C96.8009 34.8188 78.6168 20.2435 54.4128 20.2435C30.2088 20.2435 11.9831 34.8188 0.441622 63.514C-0.0508098 64.7092 -0.135089 66.0935 0.207204 67.3642C0.549497 68.6349 1.29053 69.6889 2.26834 70.2956C2.75834 70.5989 3.29287 70.7806 3.84093 70.8302C4.38899 70.8798 4.93967 70.7962 5.46104 70.5844C5.9824 70.3725 6.46407 70.0366 6.87812 69.5961C7.29216 69.1556 7.63034 68.6192 7.87304 68.0182C18.003 42.7644 33.281 30.3653 54.3298 30.3653C75.3785 30.3653 90.7395 42.7138 101.119 68.0688C101.467 68.9111 102.001 69.618 102.661 70.1099C103.322 70.6017 104.081 70.8588 104.855 70.8523C105.49 70.8823 106.12 70.7078 106.682 70.3462C107.175 70.0503 107.615 69.6381 107.976 69.1334C108.338 68.6286 108.613 68.0415 108.787 67.4059C108.961 66.7704 109.029 66.0991 108.989 65.431C108.948 64.7629 108.799 64.1113 108.55 63.514H108.509ZM67.8225 142.109C50.6763 133.152 43.7431 119.335 42.9128 109.214C42.5777 106.593 42.8378 103.91 43.6648 101.457C44.4919 99.0033 45.8542 96.8728 47.6041 95.2963C51.133 92.4116 56.3225 96.5109 63.6709 102.989C71.0193 109.467 80.8171 118.171 89.2865 110.327C96.7594 103.495 99.0013 91.2982 95.3063 77.7351C92.3791 67.2043 86.8983 58.0049 79.5888 51.3539C72.2794 44.7028 63.4858 40.9134 54.3713 40.487C17.1727 40.487 3.88747 79.7088 3.88747 116.4C3.88747 117.742 4.32488 119.03 5.10346 119.979C5.88204 120.928 6.93802 121.461 8.0391 121.461C9.14018 121.461 10.1962 120.928 10.9747 119.979C11.7533 119.03 12.1907 117.742 12.1907 116.4C12.1907 101.218 15.2214 50.6088 54.3713 50.6088C70.5626 50.6088 83.4327 66.2975 87.5843 80.974C88.8298 85.377 90.9056 96.1567 84.4706 102.23C81.1493 105.266 76.1673 101.218 68.6944 94.7902C61.2215 88.3629 51.7973 79.9112 43.2034 86.8952C40.2171 89.4924 37.8667 93.0309 36.404 97.1319C34.9413 101.233 34.4214 105.742 34.9001 110.175C35.8965 123.131 44.1998 140.541 64.7088 151.421C65.1692 151.662 65.6615 151.799 66.1619 151.826C67.1217 151.836 68.0546 151.44 68.8018 150.705C69.549 149.971 70.0644 148.943 70.2601 147.798C70.4559 146.652 70.32 145.459 69.8756 144.422C69.4312 143.385 68.7057 142.568 67.8225 142.109ZM28.7972 97.3713C30.4157 91.5054 33.2562 86.2526 37.0406 82.1274C40.825 78.0021 45.4235 75.1458 50.3857 73.8382C59.6854 71.662 68.3207 76.8747 75.2955 89.0208C75.6042 89.5896 76.0041 90.0765 76.4711 90.4521C76.9381 90.8278 77.4625 91.0845 78.013 91.2069C78.5634 91.3292 79.1284 91.3147 79.6741 91.1642C80.2198 91.0136 80.7349 90.7302 81.1885 90.3309C81.6421 89.9315 82.0248 89.4246 82.3136 88.8404C82.6024 88.2562 82.7913 87.607 82.8691 86.9315C82.9469 86.2561 82.9118 85.5685 82.7661 84.91C82.6204 84.2515 82.367 83.6357 82.0211 83.0996C69.9814 62.5018 55.9904 62.2488 48.8081 63.8683C42.2486 65.5299 36.1695 69.288 31.194 74.7572C26.2186 80.2265 22.5257 87.2103 20.494 94.9927C16.3424 114.933 22.2792 136.846 37.9308 160.126C38.3303 160.727 38.8374 161.208 39.4131 161.533C39.9888 161.857 40.618 162.017 41.2521 161.999C42.2117 162.016 43.1429 161.601 43.8677 160.835C44.7106 159.985 45.2445 158.764 45.3534 157.438C45.4622 156.111 45.1372 154.786 44.4489 153.749C30.5824 133 25.2684 114.123 28.7972 97.4219V97.3713ZM92.3172 122.979C90.6441 124.882 88.5735 126.186 86.3325 126.748C84.0915 127.311 81.7667 127.11 79.6132 126.168C69.6493 123.283 59.7684 112.503 57.6095 104.659C57.4351 104.028 57.1603 103.444 56.8009 102.942C56.4415 102.44 56.0046 102.03 55.515 101.734C55.0254 101.438 54.4927 101.262 53.9474 101.217C53.4021 101.172 52.8549 101.258 52.337 101.471C51.819 101.683 51.3405 102.018 50.9288 102.456C50.517 102.894 50.1801 103.427 49.9372 104.024C49.6944 104.621 49.5503 105.27 49.5133 105.935C49.4762 106.599 49.547 107.267 49.7215 107.898C53.0428 119.69 65.7883 132.595 77.7034 136.036C79.7723 136.627 81.8891 136.932 84.0139 136.947C86.6219 137.017 89.2148 136.448 91.6393 135.274C94.0639 134.101 96.2707 132.346 98.1294 130.115C98.7291 129.141 99.0202 127.935 98.9493 126.72C98.8785 125.505 98.4504 124.361 97.7438 123.5C97.0371 122.639 96.0993 122.117 95.1024 122.03C94.1056 121.944 93.1166 122.299 92.3172 123.03V122.979Z" fill="url(#paint0_linear_172_324)"/>
<defs>
<linearGradient id="paint0_linear_172_324" x1="54.5" y1="0" x2="54.5" y2="162" gradientUnits="userSpaceOnUse">
<stop stop-color="#E41335"/>
<stop offset="1" stop-color="#370B12"/>
</linearGradient>
</defs>
</svg>
