<svg width="25" height="25" viewBox="0 0 25 25" fill="none" xmlns="http://www.w3.org/2000/svg">
<path d="M11.7501 10.374C11.7501 10.7882 12.0859 11.124 12.5001 11.124C12.9143 11.124 13.2501 10.7882 13.2501 10.374H11.7501ZM13.2501 4.5C13.2501 4.08579 12.9143 3.75 12.5001 3.75C12.0859 3.75 11.7501 4.08579 11.7501 4.5H13.2501ZM9.81092 7.16156C10.1879 6.98991 10.3543 6.54515 10.1827 6.16818C10.011 5.79121 9.56625 5.62478 9.18928 5.79644L9.81092 7.16156ZM5.5001 12.66L4.75 12.6561L4.75015 12.6687L5.5001 12.66ZM12.5001 19.5L12.5087 18.75C12.503 18.75 12.4972 18.75 12.4915 18.75L12.5001 19.5ZM19.5001 12.66L20.2502 12.6687L20.2501 12.6561L19.5001 12.66ZM15.8109 5.79644C15.4339 5.62478 14.9892 5.79121 14.8175 6.16818C14.6459 6.54515 14.8123 6.98991 15.1893 7.16156L15.8109 5.79644ZM13.2501 10.374V4.5H11.7501V10.374H13.2501ZM9.18928 5.79644C6.49853 7.02171 4.76549 9.69951 4.75 12.6561L6.25009 12.6639C6.26252 10.2924 7.65256 8.1444 9.81092 7.16156L9.18928 5.79644ZM4.75015 12.6687C4.79945 16.9046 8.27288 20.2986 12.5087 20.25L12.4915 18.75C9.08394 18.7892 6.28971 16.0588 6.25005 12.6513L4.75015 12.6687ZM12.4915 20.25C16.7273 20.2986 20.201 16.9046 20.2502 12.6687L18.7502 12.6513C18.7105 16.0588 15.9163 18.7892 12.5087 18.75L12.4915 20.25ZM20.2501 12.6561C20.2346 9.69951 18.5017 7.02171 15.8109 5.79644L15.1893 7.16156C17.3476 8.1444 18.7377 10.2924 18.7501 12.6639L20.2501 12.6561Z" fill="white"/>
</svg>
