<svg width="24" height="24" viewBox="0 0 24 24" fill="none" xmlns="http://www.w3.org/2000/svg">
<path d="M3.00023 11.9848C2.94547 14.5806 3.92186 17.0922 5.71547 18.9694C7.50909 20.8466 9.97367 21.9364 12.5692 21.9998C14.2809 21.9807 15.9559 21.5009 17.418 20.6106C18.8801 19.7204 20.0754 18.4527 20.8782 16.9408C20.9643 16.7834 21.0063 16.6057 21 16.4263C20.9937 16.247 20.9393 16.0727 20.8425 15.9217C20.7456 15.7706 20.6099 15.6484 20.4496 15.5679C20.2893 15.4873 20.1102 15.4514 19.9312 15.4638L19.8212 15.4718C19.6902 15.4818 19.5582 15.4918 19.4212 15.4918C17.3561 15.4285 15.4001 14.5496 13.9815 13.0474C12.5629 11.5453 11.7973 9.54223 11.8522 7.47683C11.8521 6.07964 12.2013 4.70458 12.8682 3.47683C12.9541 3.31952 12.9962 3.14201 12.99 2.96289C12.9837 2.78376 12.9295 2.6096 12.8329 2.45862C12.7363 2.30764 12.6009 2.1854 12.4409 2.10469C12.2808 2.02398 12.1021 1.98776 11.9232 1.99983C9.45167 2.23423 7.15963 3.39283 5.50534 5.24402C3.85105 7.0952 2.95639 9.50256 3.00023 11.9848ZM10.3432 4.33283C10.02 5.34953 9.85539 6.40998 9.85523 7.47683C9.8158 9.84925 10.6306 12.1568 12.151 13.9784C13.6714 15.8001 15.796 17.0144 18.1372 17.3998C17.4496 18.2068 16.5965 18.8565 15.6359 19.3051C14.6752 19.7537 13.6294 19.9906 12.5692 19.9998C10.5041 19.9365 8.5481 19.0576 7.12952 17.5554C5.71093 16.0533 4.9453 14.0502 5.00023 11.9848C4.97687 10.3104 5.48006 8.67092 6.43877 7.29791C7.39747 5.9249 8.76324 4.88772 10.3432 4.33283Z" fill="white"/>
</svg>
