<svg width="21" height="20" viewBox="0 0 21 20" fill="none" xmlns="http://www.w3.org/2000/svg">
<path d="M6.125 2.5H4.375C3.4085 2.5 2.625 3.24619 2.625 4.16667V5.83333M2.625 14.1667V15.8333C2.625 16.7538 3.4085 17.5 4.375 17.5H6.125M14.875 17.5H16.625C17.5915 17.5 18.375 16.7538 18.375 15.8333V14.1667M18.375 5.83333V4.16667C18.375 3.24619 17.5915 2.5 16.625 2.5H14.875" stroke="white" stroke-width="2" stroke-linecap="round" stroke-linejoin="round"/>
<path d="M10.5 10C11.9497 10 13.125 8.88071 13.125 7.5C13.125 6.11929 11.9497 5 10.5 5C9.05025 5 7.875 6.11929 7.875 7.5C7.875 8.88071 9.05025 10 10.5 10Z" stroke="white" stroke-width="2" stroke-linecap="round" stroke-linejoin="round"/>
<path d="M14.875 13.3333C14.875 11.4924 12.9162 10 10.5 10C8.08376 10 6.125 11.4924 6.125 13.3333" stroke="white" stroke-width="2" stroke-linecap="round" stroke-linejoin="round"/>
</svg>
