<svg width="85" height="171" viewBox="0 0 85 171" fill="none" xmlns="http://www.w3.org/2000/svg">
<path d="M89.9678 49.1025C111.389 49.3826 130.062 61.4356 140.192 79.2812H177V101.044H147.616C148.038 103.982 148.257 106.989 148.257 110.048C148.257 142.523 123.649 169.065 92.6289 170.896C91.7664 170.964 90.8905 171 90.0039 171C89.8522 171 89.7009 170.997 89.5498 170.995C89.4351 170.996 89.32 170.998 89.2051 170.998L88.4414 170.993C56.1796 170.571 30.1523 143.447 30.1523 110.048C30.1524 106.989 30.3724 103.982 30.7939 101.044H0V79.2812H38.2188C48.4689 61.2245 67.4646 49.0977 89.2051 49.0977L89.9678 49.1025ZM89.2051 60.0977C62.9921 60.0978 41.1524 82.1306 41.1523 110.048C41.1523 128.749 50.953 144.808 65.3027 153.374C65.2782 153.034 65.2656 152.691 65.2656 152.346C65.2658 142.043 76.3416 133.691 90.0039 133.691C103.666 133.691 114.742 142.043 114.742 152.346C114.742 152.348 114.741 152.35 114.741 152.352C128.195 143.568 137.257 128.03 137.257 110.048C137.257 82.1306 115.418 60.0979 89.2051 60.0977ZM56.918 49.1406L39.7461 62.4473L17.1191 28.5039L34.291 15.1973L56.918 49.1406ZM163.366 29.2158L139.533 62.1846L122.854 48.1689L146.687 15.1992L163.366 29.2158ZM101.982 41.7988L80.835 41.9609L80.5605 0.161133L101.707 0L101.982 41.7988Z" fill="url(#paint0_linear_361_546)"/>
<defs>
<linearGradient id="paint0_linear_361_546" x1="153.045" y1="16.9305" x2="36.4723" y2="140.457" gradientUnits="userSpaceOnUse">
<stop stop-color="#ED6C7E"/>
<stop offset="1" stop-color="#E81236"/>
</linearGradient>
</defs>
</svg>
