<svg width="20" height="20" viewBox="0 0 20 20" fill="none" xmlns="http://www.w3.org/2000/svg">
<path d="M19.6213 9.42562L18.75 9.05188V7.5C18.75 7.155 18.47 6.875 18.125 6.875H16.25C15.905 6.875 15.625 7.155 15.625 7.5V6.25C15.625 5.905 15.345 5.625 15 5.625H13.125C12.78 5.625 12.5 5.905 12.5 6.25V6.37375L11.875 6.10563V4.75375C11.875 3.15563 11.4062 1.60813 10.52 0.27875C10.4044 0.104375 10.2087 0 10 0C9.79125 0 9.59562 0.104375 9.48 0.278125C8.59375 1.60812 8.125 3.15563 8.125 4.75375V6.10625L6.875 6.64187V6.25C6.875 5.905 6.595 5.625 6.25 5.625H4.375C4.03 5.625 3.75 5.905 3.75 6.25V6.875H1.875C1.53 6.875 1.25 7.155 1.25 7.5V9.05188L0.37875 9.425C0.14875 9.52375 0 9.75 0 10V13.125C0 13.3062 0.07875 13.4781 0.215625 13.5969C0.33 13.6962 0.475625 13.75 0.625 13.75C0.654375 13.75 0.68375 13.7481 0.713125 13.7437L8.125 12.685V14.7413L5.80813 17.0581C5.69063 17.175 5.625 17.3344 5.625 17.5V19.375C5.625 19.5825 5.72813 19.7762 5.89937 19.8925C6.00437 19.9637 6.12687 20 6.25 20C6.32812 20 6.40688 19.985 6.48188 19.955L9.375 18.7981V19.375C9.375 19.72 9.65438 20 10 20C10.3456 20 10.625 19.72 10.625 19.375V18.7981L13.5181 19.955C13.5925 19.985 13.6713 20 13.75 20C13.8731 20 13.9956 19.9637 14.1006 19.8925C14.2719 19.7762 14.375 19.5825 14.375 19.375V17.5C14.375 17.3344 14.3094 17.175 14.1919 17.0581L11.875 14.7413V12.685L19.2869 13.7437C19.3162 13.7481 19.3456 13.75 19.375 13.75C19.5244 13.75 19.67 13.6962 19.7844 13.5969C19.9213 13.4781 20 13.3062 20 13.125V10C20 9.75 19.8512 9.52375 19.6213 9.42562ZM13.125 18.4519L11.25 17.7019V15.8837L13.125 17.7587V18.4519ZM10.625 17.5H9.375V4.75375C9.375 3.76125 9.58875 2.79125 10 1.90062C10.4113 2.79125 10.625 3.76062 10.625 4.75375V17.5ZM6.875 17.7587L8.75 15.8837V17.7019L6.875 18.4519V17.7587ZM3.125 8.125V8.92875L2.5 9.19687V8.125H3.125ZM1.25 10.4119L8.75 7.1975V11.3325L1.25 12.4044V10.4119ZM5 6.875H5.625V7.85687L5 8.125V6.875ZM14.375 6.875V7.85687L13.75 7.58875V6.875H14.375ZM11.25 7.19812L18.75 10.4125V12.405L11.25 11.3338V7.19812ZM17.5 8.125V9.19625L16.875 8.92813V8.125H17.5Z" fill="white"/>
</svg>
