<svg width="17" height="16" viewBox="0 0 17 16" fill="none" xmlns="http://www.w3.org/2000/svg">
<g clip-path="url(#clip0_400_600)">
<path d="M14.3438 11.071V4.92905C14.7062 4.84157 15.0376 4.66539 15.3043 4.4184C15.5711 4.17141 15.7636 3.86239 15.8624 3.52273C15.9611 3.18306 15.9627 2.82485 15.8668 2.48444C15.7709 2.14404 15.5811 1.83357 15.3165 1.58456C15.0519 1.33554 14.7221 1.15685 14.3604 1.06662C13.9987 0.976392 13.6181 0.977839 13.2572 1.07082C12.8963 1.16379 12.568 1.34499 12.3056 1.59601C12.0431 1.84702 11.8559 2.15893 11.763 2.50005H5.23711C5.14417 2.15893 4.95698 1.84702 4.69455 1.59601C4.43212 1.34499 4.10379 1.16379 3.7429 1.07082C3.38201 0.977839 3.0014 0.976392 2.63972 1.06662C2.27804 1.15685 1.94817 1.33554 1.68359 1.58456C1.41901 1.83357 1.22915 2.14404 1.13328 2.48444C1.03742 2.82485 1.03895 3.18306 1.13774 3.52273C1.23653 3.86239 1.42905 4.17141 1.69576 4.4184C1.96246 4.66539 2.29386 4.84157 2.6563 4.92905V11.071C2.29386 11.1585 1.96246 11.3347 1.69576 11.5817C1.42905 11.8287 1.23653 12.1377 1.13774 12.4774C1.03895 12.817 1.03742 13.1752 1.13328 13.5157C1.22915 13.8561 1.41901 14.1665 1.68359 14.4155C1.94817 14.6646 2.27804 14.8432 2.63972 14.9335C3.0014 15.0237 3.38201 15.0223 3.7429 14.9293C4.10379 14.8363 4.43212 14.6551 4.69455 14.4041C4.95698 14.1531 5.14417 13.8412 5.23711 13.5H11.763C11.8559 13.8412 12.0431 14.1531 12.3056 14.4041C12.568 14.6551 12.8963 14.8363 13.2572 14.9293C13.6181 15.0223 13.9987 15.0237 14.3604 14.9335C14.7221 14.8432 15.0519 14.6646 15.3165 14.4155C15.5811 14.1665 15.7709 13.8561 15.8668 13.5157C15.9627 13.1752 15.9611 12.817 15.8624 12.4774C15.7636 12.1377 15.5711 11.8287 15.3043 11.5817C15.0376 11.3347 14.7062 11.1585 14.3438 11.071ZM13.8126 2.00005C14.0227 2.00005 14.2281 2.0587 14.4028 2.16858C14.5776 2.27846 14.7138 2.43464 14.7942 2.61736C14.8746 2.80009 14.8956 3.00116 14.8546 3.19514C14.8136 3.38912 14.7124 3.5673 14.5639 3.70715C14.4153 3.84701 14.2259 3.94225 14.0198 3.98083C13.8137 4.01942 13.6001 3.99962 13.4059 3.92393C13.2118 3.84824 13.0459 3.72007 12.9291 3.55562C12.8124 3.39117 12.7501 3.19783 12.7501 3.00005C12.7504 2.73492 12.8624 2.48075 13.0616 2.29328C13.2608 2.10581 13.5309 2.00035 13.8126 2.00005ZM2.12505 3.00005C2.12505 2.80227 2.18737 2.60893 2.30411 2.44448C2.42086 2.28003 2.5868 2.15186 2.78095 2.07617C2.9751 2.00048 3.18873 1.98068 3.39483 2.01926C3.60094 2.05785 3.79026 2.15309 3.93885 2.29294C4.08745 2.43279 4.18864 2.61098 4.22964 2.80496C4.27063 2.99894 4.24959 3.20001 4.16917 3.38273C4.08875 3.56546 3.95257 3.72164 3.77784 3.83152C3.60312 3.9414 3.39769 4.00005 3.18755 4.00005C2.90584 3.99978 2.63576 3.89434 2.43656 3.70686C2.23736 3.51938 2.12533 3.26518 2.12505 3.00005ZM3.18755 14C2.97741 14 2.77198 13.9414 2.59726 13.8315C2.42253 13.7216 2.28635 13.5655 2.20593 13.3827C2.12551 13.2 2.10447 12.9989 2.14547 12.805C2.18646 12.611 2.28766 12.4328 2.43625 12.2929C2.58484 12.1531 2.77416 12.0578 2.98027 12.0193C3.18637 11.9807 3.40001 12.0005 3.59415 12.0762C3.7883 12.1519 3.95424 12.28 4.07099 12.4445C4.18774 12.6089 4.25005 12.8023 4.25005 13C4.24973 13.2652 4.13768 13.5193 3.93849 13.7068C3.73931 13.8943 3.46924 13.9997 3.18755 14ZM11.763 12.5H5.23711C5.14197 12.1563 4.9511 11.8426 4.68421 11.5914C4.41732 11.3402 4.08406 11.1606 3.7188 11.071V4.92905C4.08403 4.83945 4.41727 4.6598 4.68415 4.40861C4.95104 4.15743 5.14192 3.84379 5.23711 3.50005H11.763C11.8581 3.84382 12.049 4.15748 12.3159 4.40867C12.5828 4.65986 12.916 4.8395 13.2813 4.92905V11.071C12.916 11.1606 12.5828 11.3402 12.3159 11.5914C12.049 11.8426 11.8581 12.1563 11.763 12.5ZM13.8126 14C13.6024 14 13.397 13.9414 13.2223 13.8315C13.0475 13.7216 12.9113 13.5655 12.8309 13.3827C12.7505 13.2 12.7295 12.9989 12.7705 12.805C12.8115 12.611 12.9127 12.4328 13.0612 12.2929C13.2098 12.1531 13.3992 12.0578 13.6053 12.0193C13.8114 11.9807 14.025 12.0005 14.2192 12.0762C14.4133 12.1519 14.5792 12.28 14.696 12.4445C14.8127 12.6089 14.8751 12.8023 14.8751 13C14.8747 13.2652 14.7626 13.5193 14.5634 13.7068C14.3643 13.8942 14.0942 13.9997 13.8126 14Z" fill="white"/>
</g>
<defs>
<clipPath id="clip0_400_600">
<rect width="17" height="16" fill="white"/>
</clipPath>
</defs>
</svg>
