<svg width="29" height="29" viewBox="0 0 29 29" fill="none" xmlns="http://www.w3.org/2000/svg">
<path d="M2.4165 14.7462C2.4165 11.9811 2.4165 10.5985 3.04387 9.45231C3.67124 8.30617 4.8174 7.59483 7.10971 6.17216L9.52637 4.67231C11.9495 3.16844 13.1611 2.4165 14.4998 2.4165C15.8386 2.4165 17.0501 3.16844 19.4733 4.67231L21.89 6.17215C24.1823 7.59483 25.3284 8.30617 25.9558 9.45231C26.5832 10.5985 26.5832 11.9811 26.5832 14.7462V16.5842C26.5832 21.2977 26.5832 23.6545 25.1675 25.1188C23.7519 26.5832 21.4734 26.5832 16.9165 26.5832H12.0832C7.52626 26.5832 5.24781 26.5832 3.83215 25.1188C2.4165 23.6545 2.4165 21.2977 2.4165 16.5842V14.7462Z" stroke="white" stroke-width="2"/>
<path d="M18.125 21.75H10.875" stroke="white" stroke-width="2" stroke-linecap="round"/>
</svg>
